<?xml version="1.0" encoding="UTF-8" standalone="no"?>
<!-- Created with Inkscape (http://www.inkscape.org/) -->
<svg xmlns:rdf="http://www.w3.org/1999/02/22-rdf-syntax-ns#" xmlns="http://www.w3.org/2000/svg" xmlns:cc="http://creativecommons.org/ns#" xmlns:xlink="http://www.w3.org/1999/xlink" xmlns:dc="http://purl.org/dc/elements/1.1/" xmlns:svg="http://www.w3.org/2000/svg" xmlns:inkscape="http://www.inkscape.org/namespaces/inkscape" xmlns:sodipodi="http://sodipodi.sourceforge.net/DTD/sodipodi-0.dtd" xmlns:ns1="http://sozi.baierouge.fr" id="svg4723" viewBox="0 0 701.81 664.45" version="1.1" inkscape:version="0.91 r13725">
  <defs id="defs3">
    <filter id="filter4142-01" color-interpolation-filters="sRGB">
      <feGaussianBlur id="feGaussianBlur4144-34" stdDeviation="3.9708581"/>
    </filter>
    <linearGradient id="linearGradient4392" y2="4696.8" gradientUnits="userSpaceOnUse" x2="1475.8" gradientTransform="translate(548.92 1954.9)" y1="5124.3" x1="1480.3">
      <stop id="stop3976-1" style="stop-color:#000000" offset="0"/>
      <stop id="stop3978-1" style="stop-color:#000000;stop-opacity:0" offset="1"/>
    </linearGradient>
    <linearGradient id="linearGradient4394" y2="4602.6" gradientUnits="userSpaceOnUse" x2="1469.1" y1="4807.4" x1="1471.4">
      <stop id="stop3964-5" style="stop-color:#ffffff" offset="0"/>
      <stop id="stop3966-03" style="stop-color:#ffffff;stop-opacity:0" offset="1"/>
    </linearGradient>
    <filter id="filter3958-2" color-interpolation-filters="sRGB">
      <feGaussianBlur id="feGaussianBlur3960-3" stdDeviation="3.7445471"/>
    </filter>
    <filter id="filter4502" color-interpolation-filters="sRGB">
      <feGaussianBlur id="feGaussianBlur4504" stdDeviation="1.9468436"/>
    </filter>
    <linearGradient id="linearGradient4514" y2="5813.9" gradientUnits="userSpaceOnUse" x2="-658.57" gradientTransform="matrix(1 0 .16608 .98611 -446.21 -81.129)" y1="5945.4" x1="-662.91">
      <stop id="stop4440" style="stop-color:#808080" offset="0"/>
      <stop id="stop4442" style="stop-color:#808080;stop-opacity:0" offset="1"/>
    </linearGradient>
    <filter id="filter4456" color-interpolation-filters="sRGB">
      <feGaussianBlur id="feGaussianBlur4458" stdDeviation="2.3861433"/>
    </filter>
    <linearGradient id="linearGradient4516" y2="6048.1" gradientUnits="userSpaceOnUse" x2="2387.7" gradientTransform="matrix(1 0 0 1.0111 -499.11 -161.93)" y1="6193" x1="2391.1">
      <stop id="stop4430" style="stop-color:#999999" offset="0"/>
      <stop id="stop4432" style="stop-color:#999999;stop-opacity:0" offset="1"/>
    </linearGradient>
    <linearGradient id="linearGradient5243" y2="5150.9" gradientUnits="userSpaceOnUse" x2="1492.1" gradientTransform="matrix(1.042 0 0 2.2649 487.58 -4854)" y1="4909.8" x1="1499">
      <stop id="stop4056-3" style="stop-color:#ffffff" offset="0"/>
      <stop id="stop4058-0" style="stop-color:#ffffff;stop-opacity:0" offset="1"/>
    </linearGradient>
  </defs>
  <g id="layer1" transform="translate(-31.952 -35.692)">
    <g id="g5178" transform="matrix(1.5365 0 0 1.5365 -2755.3 -9745.7)">
      <path id="path4362" style="filter:url(#filter4142-01);fill:#000000" d="m2199.3 6390.1c-107.63 0.2706-215.28-0.275-322.91 0.3126-24.048 2.4514-42.319 26.789-39.122 50.625 0.3482 99.151-0.7236 198.35 0.5904 297.47 3.5874 23.083 27.309 39.961 50.344 36.906 106.3-0.2637 212.65 0.5529 318.91-0.4368 23.556-3.0737 40.992-27.078 37.904-50.469-0.2579-98.768 0.5433-197.56-0.4045-296.31-2.856-21.558-23.496-39.065-45.313-38.094z"/>
      <path id="path4364" style="stroke:#d40000;stroke-width:3;fill:#ff0000" d="m1882.4 6393h318.39c22.106 0 39.903 17.797 39.903 39.903v295.89c0 22.106-17.797 39.903-39.903 39.903h-318.39c-22.106 0-39.903-17.797-39.903-39.903v-295.89c0-22.106 17.797-39.903 39.903-39.903z"/>
      <path id="path4366" style="fill:url(#linearGradient4392)" d="m1884.6 6393h318.39c22.106 0 39.903 17.797 39.903 39.903v295.89c0 22.106-17.797 39.903-39.903 39.903h-318.39c-22.106 0-39.903-17.797-39.903-39.903v-295.89c0-22.106 17.797-39.903 39.903-39.903z"/>
      <path id="path4368" style="opacity:0.88;filter:url(#filter3958-2);fill:url(#linearGradient4394)" d="m1655.5 4444.8c-4.793 0.5602-1.703 5.5631 1.7187 5.6875 18.515 7.8774 28.751 29.128 25.711 48.75-0.5387 89.326 1.237 178.71-1.0238 268-4.5621 21.944-28.442 36.766-50.219 33.153-96.339-0.5175-192.72 1.1117-289.03-0.9341-17.224-3.4141-30.038-18.915-33.474-35.615-2.4992-9.4552-4.5365 1.9534-4.1674 6.0214-0.9617 11.387 2.9521 23.441 12.579 30.125 9.322 7.6329 21.992 8.3985 33.5 7.1186 104.33-0.3933 208.7 0.892 313-0.7436 18.474-4.0375 29.092-24.974 25.465-42.75-0.5424-97.886 1.1097-195.85-0.9028-293.69-3.5787-14.574-18.078-25.681-33.156-25.125zm-322.56 0.4375c-19.294 2.3707-31.84 23.648-28.092 42.125 0.5441 10.149-1.013 20.746 0.8727 30.609 1.7428 6.6781 4.5781-3.6467 3.8752-6.6402 0.4203-15.714-2.9176-33.723 7.9063-46.812 6.2555-9.2117 16.709-13.421 26.187-18.438-3.582-0.394-7.1305-1.1153-10.75-0.8437z" transform="matrix(-1 0 0 -1 3536.6 11198)"/>
      <g id="g4506" transform="translate(2160.3 862.19)">
        <path id="path4480" style="filter:url(#filter4502);fill:#000000" d="m-234.96 5649.7h3.4895l-2.1375-12.825c-0.12987-0.7004 0.28402-1.5164 1.2924-1.4916h37.963c0.94152-0.071 1.6915 0.7982 1.9114 1.3429l2.132 12.974h142.88c3.5748 0 6.9306 2.8379 7.5243 6.3631l23.309 138.4c0.59371 3.5251-1.8062 6.3631-5.381 6.3631h-187.53c-3.5748 0-6.9306-2.838-7.5243-6.3631l-23.309-138.4c-0.59371-3.5252 1.8062-6.3631 5.381-6.3631z"/>
        <path id="rect4421" style="fill:#ffffff" d="m-232.96 5649.7h3.4895l-2.1375-12.825c-0.12987-0.7004 0.28402-1.5164 1.2924-1.4916h37.963c0.94152-0.071 1.6915 0.7982 1.9114 1.3429l2.132 12.974h142.88c3.5748 0 6.9306 2.8379 7.5243 6.3631l23.309 138.4c0.59371 3.5251-1.8062 6.3631-5.381 6.3631h-187.53c-3.5748 0-6.9306-2.838-7.5243-6.3631l-23.309-138.4c-0.59371-3.5252 1.8062-6.3631 5.381-6.3631z"/>
        <path id="path4436" style="fill:url(#linearGradient4514)" d="m-232.96 5649.7h3.4895l-2.1375-12.825c-0.12987-0.7004 0.28402-1.5164 1.2924-1.4916h37.963c0.94152-0.071 1.6915 0.7982 1.9114 1.3429l2.132 12.974h142.88c3.5748 0 6.9306 2.8379 7.5243 6.3631l23.309 138.4c0.59371 3.5251-1.8062 6.3631-5.381 6.3631h-187.53c-3.5748 0-6.9306-2.838-7.5243-6.3631l-23.309-138.4c-0.59371-3.5252 1.8062-6.3631 5.381-6.3631z"/>
        <path id="path4446" style="filter:url(#filter4456);stroke:#000000;stroke-width:1px;fill:#000000" d="m240.21 5880.3-2.3861-3.9769 40.564-120.9 4.7723-1.5908 146.35 0.7954-34.201 89.083z" transform="matrix(.91164 0 0 1.0215 -427.16 -207.83)"/>
        <rect id="rect4423" style="fill:#ffffff" transform="matrix(1 0 -.33035 .94386 0 0)" ry="5.8622" width="197.25" y="6009.3" x="1817.4" height="134.83"/>
        <rect id="rect4426" style="fill:url(#linearGradient4516)" transform="matrix(1 0 -.32671 .94512 0 0)" ry="5.9275" width="197.25" y="6001.3" x="1792.8" height="136.33"/>
      </g>
      <path id="path4390" style="fill:url(#linearGradient5243)" d="m2206.1 6415.4c-90.991 3.2725-182.32-0.68-273.44 1.2972-18.277 0.6095-37.127 0.4567-55.033 2.2341-10.254 13.748-8.7198 31.704-9.6833 47.812 0.8794 53.008 0.3587 106.02 0.4353 159.03 23.225 33.736 49.5 68.766 88.801 85.844 18.604 7.3697 40.492 3.365 55.972-8.512 36.456-22.734 65.502-53.962 99.608-79.673 30.11-26.378 61.744-55.2 102.99-63.326 3.5907-0.5141 8.2184 0.021 6.236-5.0206-0.5871-43.09 4.4885-86.878-4.6583-129.38-1.8988-4.5276-5.1708-10.851-11.234-10.312z"/>
    </g>
  </g>
  <metadata>
    <rdf:RDF>
      <cc:Work>
        <dc:format>image/svg+xml</dc:format>
        <dc:type rdf:resource="http://purl.org/dc/dcmitype/StillImage"/>
        <cc:license rdf:resource="http://creativecommons.org/licenses/publicdomain/"/>
        <dc:publisher>
          <cc:Agent rdf:about="http://openclipart.org/">
            <dc:title>Openclipart</dc:title>
          </cc:Agent>
        </dc:publisher>
        <dc:title>Folder Button</dc:title>
        <dc:date>2010-08-09T01:58:34</dc:date>
        <dc:description>Folder button</dc:description>
        <dc:source>https://openclipart.org/detail/78589/folder-button-by-inky2010</dc:source>
        <dc:creator>
          <cc:Agent>
            <dc:title>inky2010</dc:title>
          </cc:Agent>
        </dc:creator>
        <dc:subject>
          <rdf:Bag>
            <rdf:li>Button</rdf:li>
            <rdf:li>buttons</rdf:li>
            <rdf:li>folder</rdf:li>
            <rdf:li>gloss</rdf:li>
            <rdf:li>glossy</rdf:li>
            <rdf:li>icon</rdf:li>
            <rdf:li>inky2010</rdf:li>
            <rdf:li>red</rdf:li>
          </rdf:Bag>
        </dc:subject>
      </cc:Work>
      <cc:License rdf:about="http://creativecommons.org/licenses/publicdomain/">
        <cc:permits rdf:resource="http://creativecommons.org/ns#Reproduction"/>
        <cc:permits rdf:resource="http://creativecommons.org/ns#Distribution"/>
        <cc:permits rdf:resource="http://creativecommons.org/ns#DerivativeWorks"/>
      </cc:License>
    </rdf:RDF>
  </metadata>
</svg>
